<svg width="263" height="218" viewBox="0 0 263 218" fill="none" xmlns="http://www.w3.org/2000/svg">
<mask id="mask0_462_8253" style="mask-type:alpha" maskUnits="userSpaceOnUse" x="60" y="0" width="203" height="154">
<rect x="61.5" y="1.5" width="200" height="151" rx="1.5" fill="black" stroke="white" stroke-width="3"/>
</mask>
<g mask="url(#mask0_462_8253)">
<circle cx="62" cy="7" r="2" fill="white"/>
<circle cx="71" cy="7" r="2" fill="white"/>
<circle cx="80" cy="7" r="2" fill="white"/>
<circle cx="89" cy="7" r="2" fill="white"/>
<circle cx="98" cy="7" r="2" fill="white"/>
<circle cx="107" cy="7" r="2" fill="white"/>
<circle cx="116" cy="7" r="2" fill="white"/>
<circle cx="125" cy="7" r="2" fill="white"/>
<circle cx="134" cy="7" r="2" fill="white"/>
<circle cx="143" cy="7" r="2" fill="white"/>
<circle cx="152" cy="7" r="2" fill="white"/>
<circle cx="161" cy="7" r="2" fill="white"/>
<circle cx="170" cy="7" r="2" fill="white"/>
<circle cx="179" cy="7" r="2" fill="white"/>
<circle cx="188" cy="7" r="2" fill="white"/>
<circle cx="197" cy="7" r="2" fill="white"/>
<circle cx="206" cy="7" r="2" fill="white"/>
<circle cx="215" cy="7" r="2" fill="white"/>
<circle cx="224" cy="7" r="2" fill="white"/>
<circle cx="233" cy="7" r="2" fill="white"/>
<circle cx="242" cy="7" r="2" fill="white"/>
<circle cx="251" cy="7" r="2" fill="white"/>
<circle cx="260" cy="7" r="2" fill="white"/>
<circle cx="62" cy="16" r="2" fill="white"/>
<circle cx="71" cy="16" r="2" fill="white"/>
<circle cx="80" cy="16" r="2" fill="white"/>
<circle cx="89" cy="16" r="2" fill="white"/>
<circle cx="98" cy="16" r="2" fill="white"/>
<circle cx="107" cy="16" r="2" fill="white"/>
<circle cx="116" cy="16" r="2" fill="white"/>
<circle cx="125" cy="16" r="2" fill="white"/>
<circle cx="134" cy="16" r="2" fill="white"/>
<circle cx="143" cy="16" r="2" fill="white"/>
<circle cx="152" cy="16" r="2" fill="white"/>
<circle cx="161" cy="16" r="2" fill="white"/>
<circle cx="170" cy="16" r="2" fill="white"/>
<circle cx="179" cy="16" r="2" fill="white"/>
<circle cx="188" cy="16" r="2" fill="white"/>
<circle cx="197" cy="16" r="2" fill="white"/>
<circle cx="206" cy="16" r="2" fill="white"/>
<circle cx="215" cy="16" r="2" fill="white"/>
<circle cx="224" cy="16" r="2" fill="white"/>
<circle cx="233" cy="16" r="2" fill="white"/>
<circle cx="242" cy="16" r="2" fill="white"/>
<circle cx="251" cy="16" r="2" fill="white"/>
<circle cx="260" cy="16" r="2" fill="white"/>
<circle cx="62" cy="25" r="2" fill="white"/>
<circle cx="71" cy="25" r="2" fill="white"/>
<circle cx="80" cy="25" r="2" fill="white"/>
<circle cx="89" cy="25" r="2" fill="white"/>
<circle cx="98" cy="25" r="2" fill="white"/>
<circle cx="107" cy="25" r="2" fill="white"/>
<circle cx="116" cy="25" r="2" fill="white"/>
<circle cx="125" cy="25" r="2" fill="white"/>
<circle cx="134" cy="25" r="2" fill="white"/>
<circle cx="143" cy="25" r="2" fill="white"/>
<circle cx="152" cy="25" r="2" fill="white"/>
<circle cx="161" cy="25" r="2" fill="white"/>
<circle cx="170" cy="25" r="2" fill="white"/>
<circle cx="179" cy="25" r="2" fill="white"/>
<circle cx="188" cy="25" r="2" fill="white"/>
<circle cx="197" cy="25" r="2" fill="white"/>
<circle cx="206" cy="25" r="2" fill="white"/>
<circle cx="215" cy="25" r="2" fill="white"/>
<circle cx="224" cy="25" r="2" fill="white"/>
<circle cx="233" cy="25" r="2" fill="white"/>
<circle cx="242" cy="25" r="2" fill="white"/>
<circle cx="251" cy="25" r="2" fill="white"/>
<circle cx="260" cy="25" r="2" fill="white"/>
<circle cx="62" cy="34" r="2" fill="white"/>
<circle cx="71" cy="34" r="2" fill="white"/>
<circle cx="80" cy="34" r="2" fill="white"/>
<circle cx="89" cy="34" r="2" fill="white"/>
<circle cx="98" cy="34" r="2" fill="white"/>
<circle cx="107" cy="34" r="2" fill="white"/>
<circle cx="116" cy="34" r="2" fill="white"/>
<circle cx="125" cy="34" r="2" fill="white"/>
<circle cx="134" cy="34" r="2" fill="white"/>
<circle cx="143" cy="34" r="2" fill="white"/>
<circle cx="152" cy="34" r="2" fill="white"/>
<circle cx="161" cy="34" r="2" fill="white"/>
<circle cx="170" cy="34" r="2" fill="white"/>
<circle cx="179" cy="34" r="2" fill="white"/>
<circle cx="188" cy="34" r="2" fill="white"/>
<circle cx="197" cy="34" r="2" fill="white"/>
<circle cx="206" cy="34" r="2" fill="white"/>
<circle cx="215" cy="34" r="2" fill="white"/>
<circle cx="224" cy="34" r="2" fill="white"/>
<circle cx="233" cy="34" r="2" fill="white"/>
<circle cx="242" cy="34" r="2" fill="white"/>
<circle cx="251" cy="34" r="2" fill="white"/>
<circle cx="260" cy="34" r="2" fill="white"/>
<circle cx="62" cy="43" r="2" fill="white"/>
<circle cx="71" cy="43" r="2" fill="white"/>
<circle cx="80" cy="43" r="2" fill="white"/>
<circle cx="89" cy="43" r="2" fill="white"/>
<circle cx="98" cy="43" r="2" fill="white"/>
<circle cx="107" cy="43" r="2" fill="white"/>
<circle cx="116" cy="43" r="2" fill="white"/>
<circle cx="125" cy="43" r="2" fill="white"/>
<circle cx="134" cy="43" r="2" fill="white"/>
<circle cx="143" cy="43" r="2" fill="white"/>
<circle cx="152" cy="43" r="2" fill="white"/>
<circle cx="161" cy="43" r="2" fill="white"/>
<circle cx="170" cy="43" r="2" fill="white"/>
<circle cx="179" cy="43" r="2" fill="white"/>
<circle cx="188" cy="43" r="2" fill="white"/>
<circle cx="197" cy="43" r="2" fill="white"/>
<circle cx="206" cy="43" r="2" fill="white"/>
<circle cx="215" cy="43" r="2" fill="white"/>
<circle cx="224" cy="43" r="2" fill="white"/>
<circle cx="233" cy="43" r="2" fill="white"/>
<circle cx="242" cy="43" r="2" fill="white"/>
<circle cx="251" cy="43" r="2" fill="white"/>
<circle cx="260" cy="43" r="2" fill="white"/>
<circle cx="62" cy="52" r="2" fill="white"/>
<circle cx="71" cy="52" r="2" fill="white"/>
<circle cx="80" cy="52" r="2" fill="white"/>
<circle cx="89" cy="52" r="2" fill="white"/>
<circle cx="98" cy="52" r="2" fill="white"/>
<circle cx="107" cy="52" r="2" fill="white"/>
<circle cx="116" cy="52" r="2" fill="white"/>
<circle cx="125" cy="52" r="2" fill="white"/>
<circle cx="134" cy="52" r="2" fill="white"/>
<circle cx="143" cy="52" r="2" fill="white"/>
<circle cx="152" cy="52" r="2" fill="white"/>
<circle cx="161" cy="52" r="2" fill="white"/>
<circle cx="170" cy="52" r="2" fill="white"/>
<circle cx="179" cy="52" r="2" fill="white"/>
<circle cx="188" cy="52" r="2" fill="white"/>
<circle cx="197" cy="52" r="2" fill="white"/>
<circle cx="206" cy="52" r="2" fill="white"/>
<circle cx="215" cy="52" r="2" fill="white"/>
<circle cx="224" cy="52" r="2" fill="white"/>
<circle cx="233" cy="52" r="2" fill="white"/>
<circle cx="242" cy="52" r="2" fill="white"/>
<circle cx="251" cy="52" r="2" fill="white"/>
<circle cx="260" cy="52" r="2" fill="white"/>
<circle cx="62" cy="61" r="2" fill="white"/>
<circle cx="71" cy="61" r="2" fill="white"/>
<circle cx="80" cy="61" r="2" fill="white"/>
<circle cx="89" cy="61" r="2" fill="white"/>
<circle cx="98" cy="61" r="2" fill="white"/>
<circle cx="107" cy="61" r="2" fill="white"/>
<circle cx="116" cy="61" r="2" fill="white"/>
<circle cx="125" cy="61" r="2" fill="white"/>
<circle cx="134" cy="61" r="2" fill="white"/>
<circle cx="143" cy="61" r="2" fill="white"/>
<circle cx="152" cy="61" r="2" fill="white"/>
<circle cx="161" cy="61" r="2" fill="white"/>
<circle cx="170" cy="61" r="2" fill="white"/>
<circle cx="179" cy="61" r="2" fill="white"/>
<circle cx="188" cy="61" r="2" fill="white"/>
<circle cx="197" cy="61" r="2" fill="white"/>
<circle cx="206" cy="61" r="2" fill="white"/>
<circle cx="215" cy="61" r="2" fill="white"/>
<circle cx="224" cy="61" r="2" fill="white"/>
<circle cx="233" cy="61" r="2" fill="white"/>
<circle cx="242" cy="61" r="2" fill="white"/>
<circle cx="251" cy="61" r="2" fill="white"/>
<circle cx="260" cy="61" r="2" fill="white"/>
<circle cx="62" cy="70" r="2" fill="white"/>
<circle cx="71" cy="70" r="2" fill="white"/>
<circle cx="80" cy="70" r="2" fill="white"/>
<circle cx="89" cy="70" r="2" fill="white"/>
<circle cx="98" cy="70" r="2" fill="white"/>
<circle cx="107" cy="70" r="2" fill="white"/>
<circle cx="116" cy="70" r="2" fill="white"/>
<circle cx="125" cy="70" r="2" fill="white"/>
<circle cx="134" cy="70" r="2" fill="white"/>
<circle cx="143" cy="70" r="2" fill="white"/>
<circle cx="152" cy="70" r="2" fill="white"/>
<circle cx="161" cy="70" r="2" fill="white"/>
<circle cx="170" cy="70" r="2" fill="white"/>
<circle cx="179" cy="70" r="2" fill="white"/>
<circle cx="188" cy="70" r="2" fill="white"/>
<circle cx="197" cy="70" r="2" fill="white"/>
<circle cx="206" cy="70" r="2" fill="white"/>
<circle cx="215" cy="70" r="2" fill="white"/>
<circle cx="224" cy="70" r="2" fill="white"/>
<circle cx="233" cy="70" r="2" fill="white"/>
<circle cx="242" cy="70" r="2" fill="white"/>
<circle cx="251" cy="70" r="2" fill="white"/>
<circle cx="260" cy="70" r="2" fill="white"/>
<circle cx="62" cy="79" r="2" fill="white"/>
<circle cx="71" cy="79" r="2" fill="white"/>
<circle cx="80" cy="79" r="2" fill="white"/>
<circle cx="89" cy="79" r="2" fill="white"/>
<circle cx="98" cy="79" r="2" fill="white"/>
<circle cx="107" cy="79" r="2" fill="white"/>
<circle cx="116" cy="79" r="2" fill="white"/>
<circle cx="125" cy="79" r="2" fill="white"/>
<circle cx="134" cy="79" r="2" fill="white"/>
<circle cx="143" cy="79" r="2" fill="white"/>
<circle cx="152" cy="79" r="2" fill="white"/>
<circle cx="161" cy="79" r="2" fill="white"/>
<circle cx="170" cy="79" r="2" fill="white"/>
<circle cx="179" cy="79" r="2" fill="white"/>
<circle cx="188" cy="79" r="2" fill="white"/>
<circle cx="197" cy="79" r="2" fill="white"/>
<circle cx="206" cy="79" r="2" fill="white"/>
<circle cx="215" cy="79" r="2" fill="white"/>
<circle cx="224" cy="79" r="2" fill="white"/>
<circle cx="233" cy="79" r="2" fill="white"/>
<circle cx="242" cy="79" r="2" fill="white"/>
<circle cx="251" cy="79" r="2" fill="white"/>
<circle cx="260" cy="79" r="2" fill="white"/>
<circle cx="62" cy="88" r="2" fill="white"/>
<circle cx="71" cy="88" r="2" fill="white"/>
<circle cx="80" cy="88" r="2" fill="white"/>
<circle cx="89" cy="88" r="2" fill="white"/>
<circle cx="98" cy="88" r="2" fill="white"/>
<circle cx="107" cy="88" r="2" fill="white"/>
<circle cx="116" cy="88" r="2" fill="white"/>
<circle cx="125" cy="88" r="2" fill="white"/>
<circle cx="134" cy="88" r="2" fill="white"/>
<circle cx="143" cy="88" r="2" fill="white"/>
<circle cx="152" cy="88" r="2" fill="white"/>
<circle cx="161" cy="88" r="2" fill="white"/>
<circle cx="170" cy="88" r="2" fill="white"/>
<circle cx="179" cy="88" r="2" fill="white"/>
<circle cx="188" cy="88" r="2" fill="white"/>
<circle cx="197" cy="88" r="2" fill="white"/>
<circle cx="206" cy="88" r="2" fill="white"/>
<circle cx="215" cy="88" r="2" fill="white"/>
<circle cx="224" cy="88" r="2" fill="white"/>
<circle cx="233" cy="88" r="2" fill="white"/>
<circle cx="242" cy="88" r="2" fill="white"/>
<circle cx="251" cy="88" r="2" fill="white"/>
<circle cx="260" cy="88" r="2" fill="white"/>
<circle cx="62" cy="97" r="2" fill="white"/>
<circle cx="71" cy="97" r="2" fill="white"/>
<circle cx="80" cy="97" r="2" fill="white"/>
<circle cx="89" cy="97" r="2" fill="white"/>
<circle cx="98" cy="97" r="2" fill="white"/>
<circle cx="107" cy="97" r="2" fill="white"/>
<circle cx="116" cy="97" r="2" fill="white"/>
<circle cx="125" cy="97" r="2" fill="white"/>
<circle cx="134" cy="97" r="2" fill="white"/>
<circle cx="143" cy="97" r="2" fill="white"/>
<circle cx="152" cy="97" r="2" fill="white"/>
<circle cx="161" cy="97" r="2" fill="white"/>
<circle cx="170" cy="97" r="2" fill="white"/>
<circle cx="179" cy="97" r="2" fill="white"/>
<circle cx="188" cy="97" r="2" fill="white"/>
<circle cx="197" cy="97" r="2" fill="white"/>
<circle cx="206" cy="97" r="2" fill="white"/>
<circle cx="215" cy="97" r="2" fill="white"/>
<circle cx="224" cy="97" r="2" fill="white"/>
<circle cx="233" cy="97" r="2" fill="white"/>
<circle cx="242" cy="97" r="2" fill="white"/>
<circle cx="251" cy="97" r="2" fill="white"/>
<circle cx="260" cy="97" r="2" fill="white"/>
<circle cx="62" cy="106" r="2" fill="white"/>
<circle cx="71" cy="106" r="2" fill="white"/>
<circle cx="80" cy="106" r="2" fill="white"/>
<circle cx="89" cy="106" r="2" fill="white"/>
<circle cx="98" cy="106" r="2" fill="white"/>
<circle cx="107" cy="106" r="2" fill="white"/>
<circle cx="116" cy="106" r="2" fill="white"/>
<circle cx="125" cy="106" r="2" fill="white"/>
<circle cx="134" cy="106" r="2" fill="white"/>
<circle cx="143" cy="106" r="2" fill="white"/>
<circle cx="152" cy="106" r="2" fill="white"/>
<circle cx="161" cy="106" r="2" fill="white"/>
<circle cx="170" cy="106" r="2" fill="white"/>
<circle cx="179" cy="106" r="2" fill="white"/>
<circle cx="188" cy="106" r="2" fill="white"/>
<circle cx="197" cy="106" r="2" fill="white"/>
<circle cx="206" cy="106" r="2" fill="white"/>
<circle cx="215" cy="106" r="2" fill="white"/>
<circle cx="224" cy="106" r="2" fill="white"/>
<circle cx="233" cy="106" r="2" fill="white"/>
<circle cx="242" cy="106" r="2" fill="white"/>
<circle cx="251" cy="106" r="2" fill="white"/>
<circle cx="260" cy="106" r="2" fill="white"/>
<circle cx="62" cy="115" r="2" fill="white"/>
<circle cx="71" cy="115" r="2" fill="white"/>
<circle cx="80" cy="115" r="2" fill="white"/>
<circle cx="89" cy="115" r="2" fill="white"/>
<circle cx="98" cy="115" r="2" fill="white"/>
<circle cx="107" cy="115" r="2" fill="white"/>
<circle cx="116" cy="115" r="2" fill="white"/>
<circle cx="125" cy="115" r="2" fill="white"/>
<circle cx="134" cy="115" r="2" fill="white"/>
<circle cx="143" cy="115" r="2" fill="white"/>
<circle cx="152" cy="115" r="2" fill="white"/>
<circle cx="161" cy="115" r="2" fill="white"/>
<circle cx="170" cy="115" r="2" fill="white"/>
<circle cx="179" cy="115" r="2" fill="white"/>
<circle cx="188" cy="115" r="2" fill="white"/>
<circle cx="197" cy="115" r="2" fill="white"/>
<circle cx="206" cy="115" r="2" fill="white"/>
<circle cx="215" cy="115" r="2" fill="white"/>
<circle cx="224" cy="115" r="2" fill="white"/>
<circle cx="233" cy="115" r="2" fill="white"/>
<circle cx="242" cy="115" r="2" fill="white"/>
<circle cx="251" cy="115" r="2" fill="white"/>
<circle cx="260" cy="115" r="2" fill="white"/>
<circle cx="62" cy="124" r="2" fill="white"/>
<circle cx="71" cy="124" r="2" fill="white"/>
<circle cx="80" cy="124" r="2" fill="white"/>
<circle cx="89" cy="124" r="2" fill="white"/>
<circle cx="98" cy="124" r="2" fill="white"/>
<circle cx="107" cy="124" r="2" fill="white"/>
<circle cx="116" cy="124" r="2" fill="white"/>
<circle cx="125" cy="124" r="2" fill="white"/>
<circle cx="134" cy="124" r="2" fill="white"/>
<circle cx="143" cy="124" r="2" fill="white"/>
<circle cx="152" cy="124" r="2" fill="white"/>
<circle cx="161" cy="124" r="2" fill="white"/>
<circle cx="170" cy="124" r="2" fill="white"/>
<circle cx="179" cy="124" r="2" fill="white"/>
<circle cx="188" cy="124" r="2" fill="white"/>
<circle cx="197" cy="124" r="2" fill="white"/>
<circle cx="206" cy="124" r="2" fill="white"/>
<circle cx="215" cy="124" r="2" fill="white"/>
<circle cx="224" cy="124" r="2" fill="white"/>
<circle cx="233" cy="124" r="2" fill="white"/>
<circle cx="242" cy="124" r="2" fill="white"/>
<circle cx="251" cy="124" r="2" fill="white"/>
<circle cx="260" cy="124" r="2" fill="white"/>
<circle cx="62" cy="133" r="2" fill="white"/>
<circle cx="71" cy="133" r="2" fill="white"/>
<circle cx="80" cy="133" r="2" fill="white"/>
<circle cx="89" cy="133" r="2" fill="white"/>
<circle cx="98" cy="133" r="2" fill="white"/>
<circle cx="107" cy="133" r="2" fill="white"/>
<circle cx="116" cy="133" r="2" fill="white"/>
<circle cx="125" cy="133" r="2" fill="white"/>
<circle cx="134" cy="133" r="2" fill="white"/>
<circle cx="143" cy="133" r="2" fill="white"/>
<circle cx="152" cy="133" r="2" fill="white"/>
<circle cx="161" cy="133" r="2" fill="white"/>
<circle cx="170" cy="133" r="2" fill="white"/>
<circle cx="179" cy="133" r="2" fill="white"/>
<circle cx="188" cy="133" r="2" fill="white"/>
<circle cx="197" cy="133" r="2" fill="white"/>
<circle cx="206" cy="133" r="2" fill="white"/>
<circle cx="215" cy="133" r="2" fill="white"/>
<circle cx="224" cy="133" r="2" fill="white"/>
<circle cx="233" cy="133" r="2" fill="white"/>
<circle cx="242" cy="133" r="2" fill="white"/>
<circle cx="251" cy="133" r="2" fill="white"/>
<circle cx="260" cy="133" r="2" fill="white"/>
<circle cx="62" cy="142" r="2" fill="white"/>
<circle cx="71" cy="142" r="2" fill="white"/>
<circle cx="80" cy="142" r="2" fill="white"/>
<circle cx="89" cy="142" r="2" fill="white"/>
<circle cx="98" cy="142" r="2" fill="white"/>
<circle cx="107" cy="142" r="2" fill="white"/>
<circle cx="116" cy="142" r="2" fill="white"/>
<circle cx="125" cy="142" r="2" fill="white"/>
<circle cx="134" cy="142" r="2" fill="white"/>
<circle cx="143" cy="142" r="2" fill="white"/>
<circle cx="152" cy="142" r="2" fill="white"/>
<circle cx="161" cy="142" r="2" fill="white"/>
<circle cx="170" cy="142" r="2" fill="white"/>
<circle cx="179" cy="142" r="2" fill="white"/>
<circle cx="188" cy="142" r="2" fill="white"/>
<circle cx="197" cy="142" r="2" fill="white"/>
<circle cx="206" cy="142" r="2" fill="white"/>
<circle cx="215" cy="142" r="2" fill="white"/>
<circle cx="224" cy="142" r="2" fill="white"/>
<circle cx="233" cy="142" r="2" fill="white"/>
<circle cx="242" cy="142" r="2" fill="white"/>
<circle cx="251" cy="142" r="2" fill="white"/>
<circle cx="260" cy="142" r="2" fill="white"/>
<circle cx="62" cy="151" r="2" fill="white"/>
<circle cx="71" cy="151" r="2" fill="white"/>
<circle cx="80" cy="151" r="2" fill="white"/>
<circle cx="89" cy="151" r="2" fill="white"/>
<circle cx="98" cy="151" r="2" fill="white"/>
<circle cx="107" cy="151" r="2" fill="white"/>
<circle cx="116" cy="151" r="2" fill="white"/>
<circle cx="125" cy="151" r="2" fill="white"/>
<circle cx="134" cy="151" r="2" fill="white"/>
<circle cx="143" cy="151" r="2" fill="white"/>
<circle cx="152" cy="151" r="2" fill="white"/>
<circle cx="161" cy="151" r="2" fill="white"/>
<circle cx="170" cy="151" r="2" fill="white"/>
<circle cx="179" cy="151" r="2" fill="white"/>
<circle cx="188" cy="151" r="2" fill="white"/>
<circle cx="197" cy="151" r="2" fill="white"/>
<circle cx="206" cy="151" r="2" fill="white"/>
<circle cx="215" cy="151" r="2" fill="white"/>
<circle cx="224" cy="151" r="2" fill="white"/>
<circle cx="233" cy="151" r="2" fill="white"/>
<circle cx="242" cy="151" r="2" fill="white"/>
<circle cx="251" cy="151" r="2" fill="white"/>
<circle cx="260" cy="151" r="2" fill="white"/>
</g>
<rect x="34.5" y="33.5" width="200" height="151" rx="1.5" fill="white" stroke="white" stroke-width="3"/>
<mask id="mask1_462_8253" style="mask-type:alpha" maskUnits="userSpaceOnUse" x="38" y="32" width="203" height="154">
<rect x="39.5" y="33.5" width="200" height="151" rx="1.5" fill="#121212" stroke="white" stroke-width="3"/>
</mask>
<g mask="url(#mask1_462_8253)">
<circle cx="41" cy="39" r="2" fill="#121212"/>
<circle cx="50" cy="39" r="2" fill="#121212"/>
<circle cx="59" cy="39" r="2" fill="#121212"/>
<circle cx="68" cy="39" r="2" fill="#121212"/>
<circle cx="77" cy="39" r="2" fill="#121212"/>
<circle cx="86" cy="39" r="2" fill="#121212"/>
<circle cx="95" cy="39" r="2" fill="#121212"/>
<circle cx="104" cy="39" r="2" fill="#121212"/>
<circle cx="113" cy="39" r="2" fill="#121212"/>
<circle cx="122" cy="39" r="2" fill="#121212"/>
<circle cx="131" cy="39" r="2" fill="#121212"/>
<circle cx="140" cy="39" r="2" fill="#121212"/>
<circle cx="149" cy="39" r="2" fill="#121212"/>
<circle cx="158" cy="39" r="2" fill="#121212"/>
<circle cx="167" cy="39" r="2" fill="#121212"/>
<circle cx="176" cy="39" r="2" fill="#121212"/>
<circle cx="185" cy="39" r="2" fill="#121212"/>
<circle cx="194" cy="39" r="2" fill="#121212"/>
<circle cx="203" cy="39" r="2" fill="#121212"/>
<circle cx="212" cy="39" r="2" fill="#121212"/>
<circle cx="221" cy="39" r="2" fill="#121212"/>
<circle cx="230" cy="39" r="2" fill="#121212"/>
<circle cx="41" cy="48" r="2" fill="#121212"/>
<circle cx="50" cy="48" r="2" fill="#121212"/>
<circle cx="59" cy="48" r="2" fill="#121212"/>
<circle cx="68" cy="48" r="2" fill="#121212"/>
<circle cx="77" cy="48" r="2" fill="#121212"/>
<circle cx="86" cy="48" r="2" fill="#121212"/>
<circle cx="95" cy="48" r="2" fill="#121212"/>
<circle cx="104" cy="48" r="2" fill="#121212"/>
<circle cx="113" cy="48" r="2" fill="#121212"/>
<circle cx="122" cy="48" r="2" fill="#121212"/>
<circle cx="131" cy="48" r="2" fill="#121212"/>
<circle cx="140" cy="48" r="2" fill="#121212"/>
<circle cx="149" cy="48" r="2" fill="#121212"/>
<circle cx="158" cy="48" r="2" fill="#121212"/>
<circle cx="167" cy="48" r="2" fill="#121212"/>
<circle cx="176" cy="48" r="2" fill="#121212"/>
<circle cx="185" cy="48" r="2" fill="#121212"/>
<circle cx="194" cy="48" r="2" fill="#121212"/>
<circle cx="203" cy="48" r="2" fill="#121212"/>
<circle cx="212" cy="48" r="2" fill="#121212"/>
<circle cx="221" cy="48" r="2" fill="#121212"/>
<circle cx="230" cy="48" r="2" fill="#121212"/>
<circle cx="41" cy="57" r="2" fill="#121212"/>
<circle cx="50" cy="57" r="2" fill="#121212"/>
<circle cx="59" cy="57" r="2" fill="#121212"/>
<circle cx="68" cy="57" r="2" fill="#121212"/>
<circle cx="77" cy="57" r="2" fill="#121212"/>
<circle cx="86" cy="57" r="2" fill="#121212"/>
<circle cx="95" cy="57" r="2" fill="#121212"/>
<circle cx="104" cy="57" r="2" fill="#121212"/>
<circle cx="113" cy="57" r="2" fill="#121212"/>
<circle cx="122" cy="57" r="2" fill="#121212"/>
<circle cx="131" cy="57" r="2" fill="#121212"/>
<circle cx="140" cy="57" r="2" fill="#121212"/>
<circle cx="149" cy="57" r="2" fill="#121212"/>
<circle cx="158" cy="57" r="2" fill="#121212"/>
<circle cx="167" cy="57" r="2" fill="#121212"/>
<circle cx="176" cy="57" r="2" fill="#121212"/>
<circle cx="185" cy="57" r="2" fill="#121212"/>
<circle cx="194" cy="57" r="2" fill="#121212"/>
<circle cx="203" cy="57" r="2" fill="#121212"/>
<circle cx="212" cy="57" r="2" fill="#121212"/>
<circle cx="221" cy="57" r="2" fill="#121212"/>
<circle cx="230" cy="57" r="2" fill="#121212"/>
<circle cx="41" cy="66" r="2" fill="#121212"/>
<circle cx="50" cy="66" r="2" fill="#121212"/>
<circle cx="59" cy="66" r="2" fill="#121212"/>
<circle cx="68" cy="66" r="2" fill="#121212"/>
<circle cx="77" cy="66" r="2" fill="#121212"/>
<circle cx="86" cy="66" r="2" fill="#121212"/>
<circle cx="95" cy="66" r="2" fill="#121212"/>
<circle cx="104" cy="66" r="2" fill="#121212"/>
<circle cx="113" cy="66" r="2" fill="#121212"/>
<circle cx="122" cy="66" r="2" fill="#121212"/>
<circle cx="131" cy="66" r="2" fill="#121212"/>
<circle cx="140" cy="66" r="2" fill="#121212"/>
<circle cx="149" cy="66" r="2" fill="#121212"/>
<circle cx="158" cy="66" r="2" fill="#121212"/>
<circle cx="167" cy="66" r="2" fill="#121212"/>
<circle cx="176" cy="66" r="2" fill="#121212"/>
<circle cx="185" cy="66" r="2" fill="#121212"/>
<circle cx="194" cy="66" r="2" fill="#121212"/>
<circle cx="203" cy="66" r="2" fill="#121212"/>
<circle cx="212" cy="66" r="2" fill="#121212"/>
<circle cx="221" cy="66" r="2" fill="#121212"/>
<circle cx="230" cy="66" r="2" fill="#121212"/>
<circle cx="41" cy="75" r="2" fill="#121212"/>
<circle cx="50" cy="75" r="2" fill="#121212"/>
<circle cx="59" cy="75" r="2" fill="#121212"/>
<circle cx="68" cy="75" r="2" fill="#121212"/>
<circle cx="77" cy="75" r="2" fill="#121212"/>
<circle cx="86" cy="75" r="2" fill="#121212"/>
<circle cx="95" cy="75" r="2" fill="#121212"/>
<circle cx="104" cy="75" r="2" fill="#121212"/>
<circle cx="113" cy="75" r="2" fill="#121212"/>
<circle cx="122" cy="75" r="2" fill="#121212"/>
<circle cx="131" cy="75" r="2" fill="#121212"/>
<circle cx="140" cy="75" r="2" fill="#121212"/>
<circle cx="149" cy="75" r="2" fill="#121212"/>
<circle cx="158" cy="75" r="2" fill="#121212"/>
<circle cx="167" cy="75" r="2" fill="#121212"/>
<circle cx="176" cy="75" r="2" fill="#121212"/>
<circle cx="185" cy="75" r="2" fill="#121212"/>
<circle cx="194" cy="75" r="2" fill="#121212"/>
<circle cx="203" cy="75" r="2" fill="#121212"/>
<circle cx="212" cy="75" r="2" fill="#121212"/>
<circle cx="221" cy="75" r="2" fill="#121212"/>
<circle cx="230" cy="75" r="2" fill="#121212"/>
<circle cx="41" cy="84" r="2" fill="#121212"/>
<circle cx="50" cy="84" r="2" fill="#121212"/>
<circle cx="59" cy="84" r="2" fill="#121212"/>
<circle cx="68" cy="84" r="2" fill="#121212"/>
<circle cx="77" cy="84" r="2" fill="#121212"/>
<circle cx="86" cy="84" r="2" fill="#121212"/>
<circle cx="95" cy="84" r="2" fill="#121212"/>
<circle cx="104" cy="84" r="2" fill="#121212"/>
<circle cx="113" cy="84" r="2" fill="#121212"/>
<circle cx="122" cy="84" r="2" fill="#121212"/>
<circle cx="131" cy="84" r="2" fill="#121212"/>
<circle cx="140" cy="84" r="2" fill="#121212"/>
<circle cx="149" cy="84" r="2" fill="#121212"/>
<circle cx="158" cy="84" r="2" fill="#121212"/>
<circle cx="167" cy="84" r="2" fill="#121212"/>
<circle cx="176" cy="84" r="2" fill="#121212"/>
<circle cx="185" cy="84" r="2" fill="#121212"/>
<circle cx="194" cy="84" r="2" fill="#121212"/>
<circle cx="203" cy="84" r="2" fill="#121212"/>
<circle cx="212" cy="84" r="2" fill="#121212"/>
<circle cx="221" cy="84" r="2" fill="#121212"/>
<circle cx="230" cy="84" r="2" fill="#121212"/>
<circle cx="41" cy="93" r="2" fill="#121212"/>
<circle cx="50" cy="93" r="2" fill="#121212"/>
<circle cx="59" cy="93" r="2" fill="#121212"/>
<circle cx="68" cy="93" r="2" fill="#121212"/>
<circle cx="77" cy="93" r="2" fill="#121212"/>
<circle cx="86" cy="93" r="2" fill="#121212"/>
<circle cx="95" cy="93" r="2" fill="#121212"/>
<circle cx="104" cy="93" r="2" fill="#121212"/>
<circle cx="113" cy="93" r="2" fill="#121212"/>
<circle cx="122" cy="93" r="2" fill="#121212"/>
<circle cx="131" cy="93" r="2" fill="#121212"/>
<circle cx="140" cy="93" r="2" fill="#121212"/>
<circle cx="149" cy="93" r="2" fill="#121212"/>
<circle cx="158" cy="93" r="2" fill="#121212"/>
<circle cx="167" cy="93" r="2" fill="#121212"/>
<circle cx="176" cy="93" r="2" fill="#121212"/>
<circle cx="185" cy="93" r="2" fill="#121212"/>
<circle cx="194" cy="93" r="2" fill="#121212"/>
<circle cx="203" cy="93" r="2" fill="#121212"/>
<circle cx="212" cy="93" r="2" fill="#121212"/>
<circle cx="221" cy="93" r="2" fill="#121212"/>
<circle cx="230" cy="93" r="2" fill="#121212"/>
<circle cx="41" cy="102" r="2" fill="#121212"/>
<circle cx="50" cy="102" r="2" fill="#121212"/>
<circle cx="59" cy="102" r="2" fill="#121212"/>
<circle cx="68" cy="102" r="2" fill="#121212"/>
<circle cx="77" cy="102" r="2" fill="#121212"/>
<circle cx="86" cy="102" r="2" fill="#121212"/>
<circle cx="95" cy="102" r="2" fill="#121212"/>
<circle cx="104" cy="102" r="2" fill="#121212"/>
<circle cx="113" cy="102" r="2" fill="#121212"/>
<circle cx="122" cy="102" r="2" fill="#121212"/>
<circle cx="131" cy="102" r="2" fill="#121212"/>
<circle cx="140" cy="102" r="2" fill="#121212"/>
<circle cx="149" cy="102" r="2" fill="#121212"/>
<circle cx="158" cy="102" r="2" fill="#121212"/>
<circle cx="167" cy="102" r="2" fill="#121212"/>
<circle cx="176" cy="102" r="2" fill="#121212"/>
<circle cx="185" cy="102" r="2" fill="#121212"/>
<circle cx="194" cy="102" r="2" fill="#121212"/>
<circle cx="203" cy="102" r="2" fill="#121212"/>
<circle cx="212" cy="102" r="2" fill="#121212"/>
<circle cx="221" cy="102" r="2" fill="#121212"/>
<circle cx="230" cy="102" r="2" fill="#121212"/>
<circle cx="41" cy="111" r="2" fill="#121212"/>
<circle cx="50" cy="111" r="2" fill="#121212"/>
<circle cx="59" cy="111" r="2" fill="#121212"/>
<circle cx="68" cy="111" r="2" fill="#121212"/>
<circle cx="77" cy="111" r="2" fill="#121212"/>
<circle cx="86" cy="111" r="2" fill="#121212"/>
<circle cx="95" cy="111" r="2" fill="#121212"/>
<circle cx="104" cy="111" r="2" fill="#121212"/>
<circle cx="113" cy="111" r="2" fill="#121212"/>
<circle cx="122" cy="111" r="2" fill="#121212"/>
<circle cx="131" cy="111" r="2" fill="#121212"/>
<circle cx="140" cy="111" r="2" fill="#121212"/>
<circle cx="149" cy="111" r="2" fill="#121212"/>
<circle cx="158" cy="111" r="2" fill="#121212"/>
<circle cx="167" cy="111" r="2" fill="#121212"/>
<circle cx="176" cy="111" r="2" fill="#121212"/>
<circle cx="185" cy="111" r="2" fill="#121212"/>
<circle cx="194" cy="111" r="2" fill="#121212"/>
<circle cx="203" cy="111" r="2" fill="#121212"/>
<circle cx="212" cy="111" r="2" fill="#121212"/>
<circle cx="221" cy="111" r="2" fill="#121212"/>
<circle cx="230" cy="111" r="2" fill="#121212"/>
<circle cx="41" cy="120" r="2" fill="#121212"/>
<circle cx="50" cy="120" r="2" fill="#121212"/>
<circle cx="59" cy="120" r="2" fill="#121212"/>
<circle cx="68" cy="120" r="2" fill="#121212"/>
<circle cx="77" cy="120" r="2" fill="#121212"/>
<circle cx="86" cy="120" r="2" fill="#121212"/>
<circle cx="95" cy="120" r="2" fill="#121212"/>
<circle cx="104" cy="120" r="2" fill="#121212"/>
<circle cx="113" cy="120" r="2" fill="#121212"/>
<circle cx="122" cy="120" r="2" fill="#121212"/>
<circle cx="131" cy="120" r="2" fill="#121212"/>
<circle cx="140" cy="120" r="2" fill="#121212"/>
<circle cx="149" cy="120" r="2" fill="#121212"/>
<circle cx="158" cy="120" r="2" fill="#121212"/>
<circle cx="167" cy="120" r="2" fill="#121212"/>
<circle cx="176" cy="120" r="2" fill="#121212"/>
<circle cx="185" cy="120" r="2" fill="#121212"/>
<circle cx="194" cy="120" r="2" fill="#121212"/>
<circle cx="203" cy="120" r="2" fill="#121212"/>
<circle cx="212" cy="120" r="2" fill="#121212"/>
<circle cx="221" cy="120" r="2" fill="#121212"/>
<circle cx="230" cy="120" r="2" fill="#121212"/>
<circle cx="41" cy="129" r="2" fill="#121212"/>
<circle cx="50" cy="129" r="2" fill="#121212"/>
<circle cx="59" cy="129" r="2" fill="#121212"/>
<circle cx="68" cy="129" r="2" fill="#121212"/>
<circle cx="77" cy="129" r="2" fill="#121212"/>
<circle cx="86" cy="129" r="2" fill="#121212"/>
<circle cx="95" cy="129" r="2" fill="#121212"/>
<circle cx="104" cy="129" r="2" fill="#121212"/>
<circle cx="113" cy="129" r="2" fill="#121212"/>
<circle cx="122" cy="129" r="2" fill="#121212"/>
<circle cx="131" cy="129" r="2" fill="#121212"/>
<circle cx="140" cy="129" r="2" fill="#121212"/>
<circle cx="149" cy="129" r="2" fill="#121212"/>
<circle cx="158" cy="129" r="2" fill="#121212"/>
<circle cx="167" cy="129" r="2" fill="#121212"/>
<circle cx="176" cy="129" r="2" fill="#121212"/>
<circle cx="185" cy="129" r="2" fill="#121212"/>
<circle cx="194" cy="129" r="2" fill="#121212"/>
<circle cx="203" cy="129" r="2" fill="#121212"/>
<circle cx="212" cy="129" r="2" fill="#121212"/>
<circle cx="221" cy="129" r="2" fill="#121212"/>
<circle cx="230" cy="129" r="2" fill="#121212"/>
<circle cx="41" cy="138" r="2" fill="#121212"/>
<circle cx="50" cy="138" r="2" fill="#121212"/>
<circle cx="59" cy="138" r="2" fill="#121212"/>
<circle cx="68" cy="138" r="2" fill="#121212"/>
<circle cx="77" cy="138" r="2" fill="#121212"/>
<circle cx="86" cy="138" r="2" fill="#121212"/>
<circle cx="95" cy="138" r="2" fill="#121212"/>
<circle cx="104" cy="138" r="2" fill="#121212"/>
<circle cx="113" cy="138" r="2" fill="#121212"/>
<circle cx="122" cy="138" r="2" fill="#121212"/>
<circle cx="131" cy="138" r="2" fill="#121212"/>
<circle cx="140" cy="138" r="2" fill="#121212"/>
<circle cx="149" cy="138" r="2" fill="#121212"/>
<circle cx="158" cy="138" r="2" fill="#121212"/>
<circle cx="167" cy="138" r="2" fill="#121212"/>
<circle cx="176" cy="138" r="2" fill="#121212"/>
<circle cx="185" cy="138" r="2" fill="#121212"/>
<circle cx="194" cy="138" r="2" fill="#121212"/>
<circle cx="203" cy="138" r="2" fill="#121212"/>
<circle cx="212" cy="138" r="2" fill="#121212"/>
<circle cx="221" cy="138" r="2" fill="#121212"/>
<circle cx="230" cy="138" r="2" fill="#121212"/>
<circle cx="41" cy="147" r="2" fill="#121212"/>
<circle cx="50" cy="147" r="2" fill="#121212"/>
<circle cx="59" cy="147" r="2" fill="#121212"/>
<circle cx="68" cy="147" r="2" fill="#121212"/>
<circle cx="77" cy="147" r="2" fill="#121212"/>
<circle cx="86" cy="147" r="2" fill="#121212"/>
<circle cx="95" cy="147" r="2" fill="#121212"/>
<circle cx="104" cy="147" r="2" fill="#121212"/>
<circle cx="113" cy="147" r="2" fill="#121212"/>
<circle cx="122" cy="147" r="2" fill="#121212"/>
<circle cx="131" cy="147" r="2" fill="#121212"/>
<circle cx="140" cy="147" r="2" fill="#121212"/>
<circle cx="149" cy="147" r="2" fill="#121212"/>
<circle cx="158" cy="147" r="2" fill="#121212"/>
<circle cx="167" cy="147" r="2" fill="#121212"/>
<circle cx="176" cy="147" r="2" fill="#121212"/>
<circle cx="185" cy="147" r="2" fill="#121212"/>
<circle cx="194" cy="147" r="2" fill="#121212"/>
<circle cx="203" cy="147" r="2" fill="#121212"/>
<circle cx="212" cy="147" r="2" fill="#121212"/>
<circle cx="221" cy="147" r="2" fill="#121212"/>
<circle cx="230" cy="147" r="2" fill="#121212"/>
<circle cx="41" cy="156" r="2" fill="#121212"/>
<circle cx="50" cy="156" r="2" fill="#121212"/>
<circle cx="59" cy="156" r="2" fill="#121212"/>
<circle cx="68" cy="156" r="2" fill="#121212"/>
<circle cx="77" cy="156" r="2" fill="#121212"/>
<circle cx="86" cy="156" r="2" fill="#121212"/>
<circle cx="95" cy="156" r="2" fill="#121212"/>
<circle cx="104" cy="156" r="2" fill="#121212"/>
<circle cx="113" cy="156" r="2" fill="#121212"/>
<circle cx="122" cy="156" r="2" fill="#121212"/>
<circle cx="131" cy="156" r="2" fill="#121212"/>
<circle cx="140" cy="156" r="2" fill="#121212"/>
<circle cx="149" cy="156" r="2" fill="#121212"/>
<circle cx="158" cy="156" r="2" fill="#121212"/>
<circle cx="167" cy="156" r="2" fill="#121212"/>
<circle cx="176" cy="156" r="2" fill="#121212"/>
<circle cx="185" cy="156" r="2" fill="#121212"/>
<circle cx="194" cy="156" r="2" fill="#121212"/>
<circle cx="203" cy="156" r="2" fill="#121212"/>
<circle cx="212" cy="156" r="2" fill="#121212"/>
<circle cx="221" cy="156" r="2" fill="#121212"/>
<circle cx="230" cy="156" r="2" fill="#121212"/>
<circle cx="41" cy="165" r="2" fill="#121212"/>
<circle cx="50" cy="165" r="2" fill="#121212"/>
<circle cx="59" cy="165" r="2" fill="#121212"/>
<circle cx="68" cy="165" r="2" fill="#121212"/>
<circle cx="77" cy="165" r="2" fill="#121212"/>
<circle cx="86" cy="165" r="2" fill="#121212"/>
<circle cx="95" cy="165" r="2" fill="#121212"/>
<circle cx="104" cy="165" r="2" fill="#121212"/>
<circle cx="113" cy="165" r="2" fill="#121212"/>
<circle cx="122" cy="165" r="2" fill="#121212"/>
<circle cx="131" cy="165" r="2" fill="#121212"/>
<circle cx="140" cy="165" r="2" fill="#121212"/>
<circle cx="149" cy="165" r="2" fill="#121212"/>
<circle cx="158" cy="165" r="2" fill="#121212"/>
<circle cx="167" cy="165" r="2" fill="#121212"/>
<circle cx="176" cy="165" r="2" fill="#121212"/>
<circle cx="185" cy="165" r="2" fill="#121212"/>
<circle cx="194" cy="165" r="2" fill="#121212"/>
<circle cx="203" cy="165" r="2" fill="#121212"/>
<circle cx="212" cy="165" r="2" fill="#121212"/>
<circle cx="221" cy="165" r="2" fill="#121212"/>
<circle cx="230" cy="165" r="2" fill="#121212"/>
<circle cx="41" cy="174" r="2" fill="#121212"/>
<circle cx="50" cy="174" r="2" fill="#121212"/>
<circle cx="59" cy="174" r="2" fill="#121212"/>
<circle cx="68" cy="174" r="2" fill="#121212"/>
<circle cx="77" cy="174" r="2" fill="#121212"/>
<circle cx="86" cy="174" r="2" fill="#121212"/>
<circle cx="95" cy="174" r="2" fill="#121212"/>
<circle cx="104" cy="174" r="2" fill="#121212"/>
<circle cx="113" cy="174" r="2" fill="#121212"/>
<circle cx="122" cy="174" r="2" fill="#121212"/>
<circle cx="131" cy="174" r="2" fill="#121212"/>
<circle cx="140" cy="174" r="2" fill="#121212"/>
<circle cx="149" cy="174" r="2" fill="#121212"/>
<circle cx="158" cy="174" r="2" fill="#121212"/>
<circle cx="167" cy="174" r="2" fill="#121212"/>
<circle cx="176" cy="174" r="2" fill="#121212"/>
<circle cx="185" cy="174" r="2" fill="#121212"/>
<circle cx="194" cy="174" r="2" fill="#121212"/>
<circle cx="203" cy="174" r="2" fill="#121212"/>
<circle cx="212" cy="174" r="2" fill="#121212"/>
<circle cx="221" cy="174" r="2" fill="#121212"/>
<circle cx="230" cy="174" r="2" fill="#121212"/>
<circle cx="41" cy="183" r="2" fill="#121212"/>
<circle cx="50" cy="183" r="2" fill="#121212"/>
<circle cx="59" cy="183" r="2" fill="#121212"/>
<circle cx="68" cy="183" r="2" fill="#121212"/>
<circle cx="77" cy="183" r="2" fill="#121212"/>
<circle cx="86" cy="183" r="2" fill="#121212"/>
<circle cx="95" cy="183" r="2" fill="#121212"/>
<circle cx="104" cy="183" r="2" fill="#121212"/>
<circle cx="113" cy="183" r="2" fill="#121212"/>
<circle cx="122" cy="183" r="2" fill="#121212"/>
<circle cx="131" cy="183" r="2" fill="#121212"/>
<circle cx="140" cy="183" r="2" fill="#121212"/>
<circle cx="149" cy="183" r="2" fill="#121212"/>
<circle cx="158" cy="183" r="2" fill="#121212"/>
<circle cx="167" cy="183" r="2" fill="#121212"/>
<circle cx="176" cy="183" r="2" fill="#121212"/>
<circle cx="185" cy="183" r="2" fill="#121212"/>
<circle cx="194" cy="183" r="2" fill="#121212"/>
<circle cx="203" cy="183" r="2" fill="#121212"/>
<circle cx="212" cy="183" r="2" fill="#121212"/>
<circle cx="221" cy="183" r="2" fill="#121212"/>
<circle cx="230" cy="183" r="2" fill="#121212"/>
</g>
<rect x="1.5" y="65.5" width="200" height="151" rx="1.5" fill="black" stroke="white" stroke-width="3"/>
<rect x="20" y="110.385" width="53.6792" height="37.7743" rx="2" fill="white"/>
<path d="M20 103C20 101.895 20.8954 101 22 101H41.608C45.3601 101 48.4017 104.042 48.4017 107.794V107.794C48.4017 108.12 48.1372 108.384 47.811 108.384H22C20.8954 108.384 20 107.489 20 106.384V103Z" fill="white"/>
<circle cx="9.76565" cy="73.3582" r="2.76565" fill="white"/>
<circle cx="18.7539" cy="73.3582" r="2.76565" fill="white"/>
<circle cx="27.7422" cy="73.3582" r="2.76565" fill="white"/>
<rect x="34" y="70" width="157" height="6" rx="0.839572" fill="white"/>
<rect x="20" y="153" width="54" height="7" rx="1" fill="white"/>
<line x1="2.5" y1="81.5" x2="199.5" y2="81.5" stroke="white" stroke-width="3" stroke-linecap="round"/>
</svg>
