<svg width="257" height="218" viewBox="0 0 257 218" fill="none" xmlns="http://www.w3.org/2000/svg">
<mask id="mask0_462_8251" style="mask-type:alpha" maskUnits="userSpaceOnUse" x="54" y="0" width="203" height="154">
<rect x="55.5" y="1.5" width="200" height="151" rx="1.5" fill="black" stroke="white" stroke-width="3"/>
</mask>
<g mask="url(#mask0_462_8251)">
<circle cx="56" cy="7" r="2" fill="white"/>
<circle cx="65" cy="7" r="2" fill="white"/>
<circle cx="74" cy="7" r="2" fill="white"/>
<circle cx="83" cy="7" r="2" fill="white"/>
<circle cx="92" cy="7" r="2" fill="white"/>
<circle cx="101" cy="7" r="2" fill="white"/>
<circle cx="110" cy="7" r="2" fill="white"/>
<circle cx="119" cy="7" r="2" fill="white"/>
<circle cx="128" cy="7" r="2" fill="white"/>
<circle cx="137" cy="7" r="2" fill="white"/>
<circle cx="146" cy="7" r="2" fill="white"/>
<circle cx="155" cy="7" r="2" fill="white"/>
<circle cx="164" cy="7" r="2" fill="white"/>
<circle cx="173" cy="7" r="2" fill="white"/>
<circle cx="182" cy="7" r="2" fill="white"/>
<circle cx="191" cy="7" r="2" fill="white"/>
<circle cx="200" cy="7" r="2" fill="white"/>
<circle cx="209" cy="7" r="2" fill="white"/>
<circle cx="218" cy="7" r="2" fill="white"/>
<circle cx="227" cy="7" r="2" fill="white"/>
<circle cx="236" cy="7" r="2" fill="white"/>
<circle cx="245" cy="7" r="2" fill="white"/>
<circle cx="254" cy="7" r="2" fill="white"/>
<circle cx="56" cy="16" r="2" fill="white"/>
<circle cx="65" cy="16" r="2" fill="white"/>
<circle cx="74" cy="16" r="2" fill="white"/>
<circle cx="83" cy="16" r="2" fill="white"/>
<circle cx="92" cy="16" r="2" fill="white"/>
<circle cx="101" cy="16" r="2" fill="white"/>
<circle cx="110" cy="16" r="2" fill="white"/>
<circle cx="119" cy="16" r="2" fill="white"/>
<circle cx="128" cy="16" r="2" fill="white"/>
<circle cx="137" cy="16" r="2" fill="white"/>
<circle cx="146" cy="16" r="2" fill="white"/>
<circle cx="155" cy="16" r="2" fill="white"/>
<circle cx="164" cy="16" r="2" fill="white"/>
<circle cx="173" cy="16" r="2" fill="white"/>
<circle cx="182" cy="16" r="2" fill="white"/>
<circle cx="191" cy="16" r="2" fill="white"/>
<circle cx="200" cy="16" r="2" fill="white"/>
<circle cx="209" cy="16" r="2" fill="white"/>
<circle cx="218" cy="16" r="2" fill="white"/>
<circle cx="227" cy="16" r="2" fill="white"/>
<circle cx="236" cy="16" r="2" fill="white"/>
<circle cx="245" cy="16" r="2" fill="white"/>
<circle cx="254" cy="16" r="2" fill="white"/>
<circle cx="56" cy="25" r="2" fill="white"/>
<circle cx="65" cy="25" r="2" fill="white"/>
<circle cx="74" cy="25" r="2" fill="white"/>
<circle cx="83" cy="25" r="2" fill="white"/>
<circle cx="92" cy="25" r="2" fill="white"/>
<circle cx="101" cy="25" r="2" fill="white"/>
<circle cx="110" cy="25" r="2" fill="white"/>
<circle cx="119" cy="25" r="2" fill="white"/>
<circle cx="128" cy="25" r="2" fill="white"/>
<circle cx="137" cy="25" r="2" fill="white"/>
<circle cx="146" cy="25" r="2" fill="white"/>
<circle cx="155" cy="25" r="2" fill="white"/>
<circle cx="164" cy="25" r="2" fill="white"/>
<circle cx="173" cy="25" r="2" fill="white"/>
<circle cx="182" cy="25" r="2" fill="white"/>
<circle cx="191" cy="25" r="2" fill="white"/>
<circle cx="200" cy="25" r="2" fill="white"/>
<circle cx="209" cy="25" r="2" fill="white"/>
<circle cx="218" cy="25" r="2" fill="white"/>
<circle cx="227" cy="25" r="2" fill="white"/>
<circle cx="236" cy="25" r="2" fill="white"/>
<circle cx="245" cy="25" r="2" fill="white"/>
<circle cx="254" cy="25" r="2" fill="white"/>
<circle cx="56" cy="34" r="2" fill="white"/>
<circle cx="65" cy="34" r="2" fill="white"/>
<circle cx="74" cy="34" r="2" fill="white"/>
<circle cx="83" cy="34" r="2" fill="white"/>
<circle cx="92" cy="34" r="2" fill="white"/>
<circle cx="101" cy="34" r="2" fill="white"/>
<circle cx="110" cy="34" r="2" fill="white"/>
<circle cx="119" cy="34" r="2" fill="white"/>
<circle cx="128" cy="34" r="2" fill="white"/>
<circle cx="137" cy="34" r="2" fill="white"/>
<circle cx="146" cy="34" r="2" fill="white"/>
<circle cx="155" cy="34" r="2" fill="white"/>
<circle cx="164" cy="34" r="2" fill="white"/>
<circle cx="173" cy="34" r="2" fill="white"/>
<circle cx="182" cy="34" r="2" fill="white"/>
<circle cx="191" cy="34" r="2" fill="white"/>
<circle cx="200" cy="34" r="2" fill="white"/>
<circle cx="209" cy="34" r="2" fill="white"/>
<circle cx="218" cy="34" r="2" fill="white"/>
<circle cx="227" cy="34" r="2" fill="white"/>
<circle cx="236" cy="34" r="2" fill="white"/>
<circle cx="245" cy="34" r="2" fill="white"/>
<circle cx="254" cy="34" r="2" fill="white"/>
<circle cx="56" cy="43" r="2" fill="white"/>
<circle cx="65" cy="43" r="2" fill="white"/>
<circle cx="74" cy="43" r="2" fill="white"/>
<circle cx="83" cy="43" r="2" fill="white"/>
<circle cx="92" cy="43" r="2" fill="white"/>
<circle cx="101" cy="43" r="2" fill="white"/>
<circle cx="110" cy="43" r="2" fill="white"/>
<circle cx="119" cy="43" r="2" fill="white"/>
<circle cx="128" cy="43" r="2" fill="white"/>
<circle cx="137" cy="43" r="2" fill="white"/>
<circle cx="146" cy="43" r="2" fill="white"/>
<circle cx="155" cy="43" r="2" fill="white"/>
<circle cx="164" cy="43" r="2" fill="white"/>
<circle cx="173" cy="43" r="2" fill="white"/>
<circle cx="182" cy="43" r="2" fill="white"/>
<circle cx="191" cy="43" r="2" fill="white"/>
<circle cx="200" cy="43" r="2" fill="white"/>
<circle cx="209" cy="43" r="2" fill="white"/>
<circle cx="218" cy="43" r="2" fill="white"/>
<circle cx="227" cy="43" r="2" fill="white"/>
<circle cx="236" cy="43" r="2" fill="white"/>
<circle cx="245" cy="43" r="2" fill="white"/>
<circle cx="254" cy="43" r="2" fill="white"/>
<circle cx="56" cy="52" r="2" fill="white"/>
<circle cx="65" cy="52" r="2" fill="white"/>
<circle cx="74" cy="52" r="2" fill="white"/>
<circle cx="83" cy="52" r="2" fill="white"/>
<circle cx="92" cy="52" r="2" fill="white"/>
<circle cx="101" cy="52" r="2" fill="white"/>
<circle cx="110" cy="52" r="2" fill="white"/>
<circle cx="119" cy="52" r="2" fill="white"/>
<circle cx="128" cy="52" r="2" fill="white"/>
<circle cx="137" cy="52" r="2" fill="white"/>
<circle cx="146" cy="52" r="2" fill="white"/>
<circle cx="155" cy="52" r="2" fill="white"/>
<circle cx="164" cy="52" r="2" fill="white"/>
<circle cx="173" cy="52" r="2" fill="white"/>
<circle cx="182" cy="52" r="2" fill="white"/>
<circle cx="191" cy="52" r="2" fill="white"/>
<circle cx="200" cy="52" r="2" fill="white"/>
<circle cx="209" cy="52" r="2" fill="white"/>
<circle cx="218" cy="52" r="2" fill="white"/>
<circle cx="227" cy="52" r="2" fill="white"/>
<circle cx="236" cy="52" r="2" fill="white"/>
<circle cx="245" cy="52" r="2" fill="white"/>
<circle cx="254" cy="52" r="2" fill="white"/>
<circle cx="56" cy="61" r="2" fill="white"/>
<circle cx="65" cy="61" r="2" fill="white"/>
<circle cx="74" cy="61" r="2" fill="white"/>
<circle cx="83" cy="61" r="2" fill="white"/>
<circle cx="92" cy="61" r="2" fill="white"/>
<circle cx="101" cy="61" r="2" fill="white"/>
<circle cx="110" cy="61" r="2" fill="white"/>
<circle cx="119" cy="61" r="2" fill="white"/>
<circle cx="128" cy="61" r="2" fill="white"/>
<circle cx="137" cy="61" r="2" fill="white"/>
<circle cx="146" cy="61" r="2" fill="white"/>
<circle cx="155" cy="61" r="2" fill="white"/>
<circle cx="164" cy="61" r="2" fill="white"/>
<circle cx="173" cy="61" r="2" fill="white"/>
<circle cx="182" cy="61" r="2" fill="white"/>
<circle cx="191" cy="61" r="2" fill="white"/>
<circle cx="200" cy="61" r="2" fill="white"/>
<circle cx="209" cy="61" r="2" fill="white"/>
<circle cx="218" cy="61" r="2" fill="white"/>
<circle cx="227" cy="61" r="2" fill="white"/>
<circle cx="236" cy="61" r="2" fill="white"/>
<circle cx="245" cy="61" r="2" fill="white"/>
<circle cx="254" cy="61" r="2" fill="white"/>
<circle cx="56" cy="70" r="2" fill="white"/>
<circle cx="65" cy="70" r="2" fill="white"/>
<circle cx="74" cy="70" r="2" fill="white"/>
<circle cx="83" cy="70" r="2" fill="white"/>
<circle cx="92" cy="70" r="2" fill="white"/>
<circle cx="101" cy="70" r="2" fill="white"/>
<circle cx="110" cy="70" r="2" fill="white"/>
<circle cx="119" cy="70" r="2" fill="white"/>
<circle cx="128" cy="70" r="2" fill="white"/>
<circle cx="137" cy="70" r="2" fill="white"/>
<circle cx="146" cy="70" r="2" fill="white"/>
<circle cx="155" cy="70" r="2" fill="white"/>
<circle cx="164" cy="70" r="2" fill="white"/>
<circle cx="173" cy="70" r="2" fill="white"/>
<circle cx="182" cy="70" r="2" fill="white"/>
<circle cx="191" cy="70" r="2" fill="white"/>
<circle cx="200" cy="70" r="2" fill="white"/>
<circle cx="209" cy="70" r="2" fill="white"/>
<circle cx="218" cy="70" r="2" fill="white"/>
<circle cx="227" cy="70" r="2" fill="white"/>
<circle cx="236" cy="70" r="2" fill="white"/>
<circle cx="245" cy="70" r="2" fill="white"/>
<circle cx="254" cy="70" r="2" fill="white"/>
<circle cx="56" cy="79" r="2" fill="white"/>
<circle cx="65" cy="79" r="2" fill="white"/>
<circle cx="74" cy="79" r="2" fill="white"/>
<circle cx="83" cy="79" r="2" fill="white"/>
<circle cx="92" cy="79" r="2" fill="white"/>
<circle cx="101" cy="79" r="2" fill="white"/>
<circle cx="110" cy="79" r="2" fill="white"/>
<circle cx="119" cy="79" r="2" fill="white"/>
<circle cx="128" cy="79" r="2" fill="white"/>
<circle cx="137" cy="79" r="2" fill="white"/>
<circle cx="146" cy="79" r="2" fill="white"/>
<circle cx="155" cy="79" r="2" fill="white"/>
<circle cx="164" cy="79" r="2" fill="white"/>
<circle cx="173" cy="79" r="2" fill="white"/>
<circle cx="182" cy="79" r="2" fill="white"/>
<circle cx="191" cy="79" r="2" fill="white"/>
<circle cx="200" cy="79" r="2" fill="white"/>
<circle cx="209" cy="79" r="2" fill="white"/>
<circle cx="218" cy="79" r="2" fill="white"/>
<circle cx="227" cy="79" r="2" fill="white"/>
<circle cx="236" cy="79" r="2" fill="white"/>
<circle cx="245" cy="79" r="2" fill="white"/>
<circle cx="254" cy="79" r="2" fill="white"/>
<circle cx="56" cy="88" r="2" fill="white"/>
<circle cx="65" cy="88" r="2" fill="white"/>
<circle cx="74" cy="88" r="2" fill="white"/>
<circle cx="83" cy="88" r="2" fill="white"/>
<circle cx="92" cy="88" r="2" fill="white"/>
<circle cx="101" cy="88" r="2" fill="white"/>
<circle cx="110" cy="88" r="2" fill="white"/>
<circle cx="119" cy="88" r="2" fill="white"/>
<circle cx="128" cy="88" r="2" fill="white"/>
<circle cx="137" cy="88" r="2" fill="white"/>
<circle cx="146" cy="88" r="2" fill="white"/>
<circle cx="155" cy="88" r="2" fill="white"/>
<circle cx="164" cy="88" r="2" fill="white"/>
<circle cx="173" cy="88" r="2" fill="white"/>
<circle cx="182" cy="88" r="2" fill="white"/>
<circle cx="191" cy="88" r="2" fill="white"/>
<circle cx="200" cy="88" r="2" fill="white"/>
<circle cx="209" cy="88" r="2" fill="white"/>
<circle cx="218" cy="88" r="2" fill="white"/>
<circle cx="227" cy="88" r="2" fill="white"/>
<circle cx="236" cy="88" r="2" fill="white"/>
<circle cx="245" cy="88" r="2" fill="white"/>
<circle cx="254" cy="88" r="2" fill="white"/>
<circle cx="56" cy="97" r="2" fill="white"/>
<circle cx="65" cy="97" r="2" fill="white"/>
<circle cx="74" cy="97" r="2" fill="white"/>
<circle cx="83" cy="97" r="2" fill="white"/>
<circle cx="92" cy="97" r="2" fill="white"/>
<circle cx="101" cy="97" r="2" fill="white"/>
<circle cx="110" cy="97" r="2" fill="white"/>
<circle cx="119" cy="97" r="2" fill="white"/>
<circle cx="128" cy="97" r="2" fill="white"/>
<circle cx="137" cy="97" r="2" fill="white"/>
<circle cx="146" cy="97" r="2" fill="white"/>
<circle cx="155" cy="97" r="2" fill="white"/>
<circle cx="164" cy="97" r="2" fill="white"/>
<circle cx="173" cy="97" r="2" fill="white"/>
<circle cx="182" cy="97" r="2" fill="white"/>
<circle cx="191" cy="97" r="2" fill="white"/>
<circle cx="200" cy="97" r="2" fill="white"/>
<circle cx="209" cy="97" r="2" fill="white"/>
<circle cx="218" cy="97" r="2" fill="white"/>
<circle cx="227" cy="97" r="2" fill="white"/>
<circle cx="236" cy="97" r="2" fill="white"/>
<circle cx="245" cy="97" r="2" fill="white"/>
<circle cx="254" cy="97" r="2" fill="white"/>
<circle cx="56" cy="106" r="2" fill="white"/>
<circle cx="65" cy="106" r="2" fill="white"/>
<circle cx="74" cy="106" r="2" fill="white"/>
<circle cx="83" cy="106" r="2" fill="white"/>
<circle cx="92" cy="106" r="2" fill="white"/>
<circle cx="101" cy="106" r="2" fill="white"/>
<circle cx="110" cy="106" r="2" fill="white"/>
<circle cx="119" cy="106" r="2" fill="white"/>
<circle cx="128" cy="106" r="2" fill="white"/>
<circle cx="137" cy="106" r="2" fill="white"/>
<circle cx="146" cy="106" r="2" fill="white"/>
<circle cx="155" cy="106" r="2" fill="white"/>
<circle cx="164" cy="106" r="2" fill="white"/>
<circle cx="173" cy="106" r="2" fill="white"/>
<circle cx="182" cy="106" r="2" fill="white"/>
<circle cx="191" cy="106" r="2" fill="white"/>
<circle cx="200" cy="106" r="2" fill="white"/>
<circle cx="209" cy="106" r="2" fill="white"/>
<circle cx="218" cy="106" r="2" fill="white"/>
<circle cx="227" cy="106" r="2" fill="white"/>
<circle cx="236" cy="106" r="2" fill="white"/>
<circle cx="245" cy="106" r="2" fill="white"/>
<circle cx="254" cy="106" r="2" fill="white"/>
<circle cx="56" cy="115" r="2" fill="white"/>
<circle cx="65" cy="115" r="2" fill="white"/>
<circle cx="74" cy="115" r="2" fill="white"/>
<circle cx="83" cy="115" r="2" fill="white"/>
<circle cx="92" cy="115" r="2" fill="white"/>
<circle cx="101" cy="115" r="2" fill="white"/>
<circle cx="110" cy="115" r="2" fill="white"/>
<circle cx="119" cy="115" r="2" fill="white"/>
<circle cx="128" cy="115" r="2" fill="white"/>
<circle cx="137" cy="115" r="2" fill="white"/>
<circle cx="146" cy="115" r="2" fill="white"/>
<circle cx="155" cy="115" r="2" fill="white"/>
<circle cx="164" cy="115" r="2" fill="white"/>
<circle cx="173" cy="115" r="2" fill="white"/>
<circle cx="182" cy="115" r="2" fill="white"/>
<circle cx="191" cy="115" r="2" fill="white"/>
<circle cx="200" cy="115" r="2" fill="white"/>
<circle cx="209" cy="115" r="2" fill="white"/>
<circle cx="218" cy="115" r="2" fill="white"/>
<circle cx="227" cy="115" r="2" fill="white"/>
<circle cx="236" cy="115" r="2" fill="white"/>
<circle cx="245" cy="115" r="2" fill="white"/>
<circle cx="254" cy="115" r="2" fill="white"/>
<circle cx="56" cy="124" r="2" fill="white"/>
<circle cx="65" cy="124" r="2" fill="white"/>
<circle cx="74" cy="124" r="2" fill="white"/>
<circle cx="83" cy="124" r="2" fill="white"/>
<circle cx="92" cy="124" r="2" fill="white"/>
<circle cx="101" cy="124" r="2" fill="white"/>
<circle cx="110" cy="124" r="2" fill="white"/>
<circle cx="119" cy="124" r="2" fill="white"/>
<circle cx="128" cy="124" r="2" fill="white"/>
<circle cx="137" cy="124" r="2" fill="white"/>
<circle cx="146" cy="124" r="2" fill="white"/>
<circle cx="155" cy="124" r="2" fill="white"/>
<circle cx="164" cy="124" r="2" fill="white"/>
<circle cx="173" cy="124" r="2" fill="white"/>
<circle cx="182" cy="124" r="2" fill="white"/>
<circle cx="191" cy="124" r="2" fill="white"/>
<circle cx="200" cy="124" r="2" fill="white"/>
<circle cx="209" cy="124" r="2" fill="white"/>
<circle cx="218" cy="124" r="2" fill="white"/>
<circle cx="227" cy="124" r="2" fill="white"/>
<circle cx="236" cy="124" r="2" fill="white"/>
<circle cx="245" cy="124" r="2" fill="white"/>
<circle cx="254" cy="124" r="2" fill="white"/>
<circle cx="56" cy="133" r="2" fill="white"/>
<circle cx="65" cy="133" r="2" fill="white"/>
<circle cx="74" cy="133" r="2" fill="white"/>
<circle cx="83" cy="133" r="2" fill="white"/>
<circle cx="92" cy="133" r="2" fill="white"/>
<circle cx="101" cy="133" r="2" fill="white"/>
<circle cx="110" cy="133" r="2" fill="white"/>
<circle cx="119" cy="133" r="2" fill="white"/>
<circle cx="128" cy="133" r="2" fill="white"/>
<circle cx="137" cy="133" r="2" fill="white"/>
<circle cx="146" cy="133" r="2" fill="white"/>
<circle cx="155" cy="133" r="2" fill="white"/>
<circle cx="164" cy="133" r="2" fill="white"/>
<circle cx="173" cy="133" r="2" fill="white"/>
<circle cx="182" cy="133" r="2" fill="white"/>
<circle cx="191" cy="133" r="2" fill="white"/>
<circle cx="200" cy="133" r="2" fill="white"/>
<circle cx="209" cy="133" r="2" fill="white"/>
<circle cx="218" cy="133" r="2" fill="white"/>
<circle cx="227" cy="133" r="2" fill="white"/>
<circle cx="236" cy="133" r="2" fill="white"/>
<circle cx="245" cy="133" r="2" fill="white"/>
<circle cx="254" cy="133" r="2" fill="white"/>
<circle cx="56" cy="142" r="2" fill="white"/>
<circle cx="65" cy="142" r="2" fill="white"/>
<circle cx="74" cy="142" r="2" fill="white"/>
<circle cx="83" cy="142" r="2" fill="white"/>
<circle cx="92" cy="142" r="2" fill="white"/>
<circle cx="101" cy="142" r="2" fill="white"/>
<circle cx="110" cy="142" r="2" fill="white"/>
<circle cx="119" cy="142" r="2" fill="white"/>
<circle cx="128" cy="142" r="2" fill="white"/>
<circle cx="137" cy="142" r="2" fill="white"/>
<circle cx="146" cy="142" r="2" fill="white"/>
<circle cx="155" cy="142" r="2" fill="white"/>
<circle cx="164" cy="142" r="2" fill="white"/>
<circle cx="173" cy="142" r="2" fill="white"/>
<circle cx="182" cy="142" r="2" fill="white"/>
<circle cx="191" cy="142" r="2" fill="white"/>
<circle cx="200" cy="142" r="2" fill="white"/>
<circle cx="209" cy="142" r="2" fill="white"/>
<circle cx="218" cy="142" r="2" fill="white"/>
<circle cx="227" cy="142" r="2" fill="white"/>
<circle cx="236" cy="142" r="2" fill="white"/>
<circle cx="245" cy="142" r="2" fill="white"/>
<circle cx="254" cy="142" r="2" fill="white"/>
<circle cx="56" cy="151" r="2" fill="white"/>
<circle cx="65" cy="151" r="2" fill="white"/>
<circle cx="74" cy="151" r="2" fill="white"/>
<circle cx="83" cy="151" r="2" fill="white"/>
<circle cx="92" cy="151" r="2" fill="white"/>
<circle cx="101" cy="151" r="2" fill="white"/>
<circle cx="110" cy="151" r="2" fill="white"/>
<circle cx="119" cy="151" r="2" fill="white"/>
<circle cx="128" cy="151" r="2" fill="white"/>
<circle cx="137" cy="151" r="2" fill="white"/>
<circle cx="146" cy="151" r="2" fill="white"/>
<circle cx="155" cy="151" r="2" fill="white"/>
<circle cx="164" cy="151" r="2" fill="white"/>
<circle cx="173" cy="151" r="2" fill="white"/>
<circle cx="182" cy="151" r="2" fill="white"/>
<circle cx="191" cy="151" r="2" fill="white"/>
<circle cx="200" cy="151" r="2" fill="white"/>
<circle cx="209" cy="151" r="2" fill="white"/>
<circle cx="218" cy="151" r="2" fill="white"/>
<circle cx="227" cy="151" r="2" fill="white"/>
<circle cx="236" cy="151" r="2" fill="white"/>
<circle cx="245" cy="151" r="2" fill="white"/>
<circle cx="254" cy="151" r="2" fill="white"/>
</g>
<rect x="28.5" y="33.5" width="200" height="151" rx="1.5" fill="white" stroke="white" stroke-width="3"/>
<mask id="mask1_462_8251" style="mask-type:alpha" maskUnits="userSpaceOnUse" x="32" y="32" width="203" height="154">
<rect x="33.5" y="33.5" width="200" height="151" rx="1.5" fill="#121212" stroke="white" stroke-width="3"/>
</mask>
<g mask="url(#mask1_462_8251)">
<circle cx="35" cy="39" r="2" fill="#121212"/>
<circle cx="44" cy="39" r="2" fill="#121212"/>
<circle cx="53" cy="39" r="2" fill="#121212"/>
<circle cx="62" cy="39" r="2" fill="#121212"/>
<circle cx="71" cy="39" r="2" fill="#121212"/>
<circle cx="80" cy="39" r="2" fill="#121212"/>
<circle cx="89" cy="39" r="2" fill="#121212"/>
<circle cx="98" cy="39" r="2" fill="#121212"/>
<circle cx="107" cy="39" r="2" fill="#121212"/>
<circle cx="116" cy="39" r="2" fill="#121212"/>
<circle cx="125" cy="39" r="2" fill="#121212"/>
<circle cx="134" cy="39" r="2" fill="#121212"/>
<circle cx="143" cy="39" r="2" fill="#121212"/>
<circle cx="152" cy="39" r="2" fill="#121212"/>
<circle cx="161" cy="39" r="2" fill="#121212"/>
<circle cx="170" cy="39" r="2" fill="#121212"/>
<circle cx="179" cy="39" r="2" fill="#121212"/>
<circle cx="188" cy="39" r="2" fill="#121212"/>
<circle cx="197" cy="39" r="2" fill="#121212"/>
<circle cx="206" cy="39" r="2" fill="#121212"/>
<circle cx="215" cy="39" r="2" fill="#121212"/>
<circle cx="224" cy="39" r="2" fill="#121212"/>
<circle cx="35" cy="48" r="2" fill="#121212"/>
<circle cx="44" cy="48" r="2" fill="#121212"/>
<circle cx="53" cy="48" r="2" fill="#121212"/>
<circle cx="62" cy="48" r="2" fill="#121212"/>
<circle cx="71" cy="48" r="2" fill="#121212"/>
<circle cx="80" cy="48" r="2" fill="#121212"/>
<circle cx="89" cy="48" r="2" fill="#121212"/>
<circle cx="98" cy="48" r="2" fill="#121212"/>
<circle cx="107" cy="48" r="2" fill="#121212"/>
<circle cx="116" cy="48" r="2" fill="#121212"/>
<circle cx="125" cy="48" r="2" fill="#121212"/>
<circle cx="134" cy="48" r="2" fill="#121212"/>
<circle cx="143" cy="48" r="2" fill="#121212"/>
<circle cx="152" cy="48" r="2" fill="#121212"/>
<circle cx="161" cy="48" r="2" fill="#121212"/>
<circle cx="170" cy="48" r="2" fill="#121212"/>
<circle cx="179" cy="48" r="2" fill="#121212"/>
<circle cx="188" cy="48" r="2" fill="#121212"/>
<circle cx="197" cy="48" r="2" fill="#121212"/>
<circle cx="206" cy="48" r="2" fill="#121212"/>
<circle cx="215" cy="48" r="2" fill="#121212"/>
<circle cx="224" cy="48" r="2" fill="#121212"/>
<circle cx="35" cy="57" r="2" fill="#121212"/>
<circle cx="44" cy="57" r="2" fill="#121212"/>
<circle cx="53" cy="57" r="2" fill="#121212"/>
<circle cx="62" cy="57" r="2" fill="#121212"/>
<circle cx="71" cy="57" r="2" fill="#121212"/>
<circle cx="80" cy="57" r="2" fill="#121212"/>
<circle cx="89" cy="57" r="2" fill="#121212"/>
<circle cx="98" cy="57" r="2" fill="#121212"/>
<circle cx="107" cy="57" r="2" fill="#121212"/>
<circle cx="116" cy="57" r="2" fill="#121212"/>
<circle cx="125" cy="57" r="2" fill="#121212"/>
<circle cx="134" cy="57" r="2" fill="#121212"/>
<circle cx="143" cy="57" r="2" fill="#121212"/>
<circle cx="152" cy="57" r="2" fill="#121212"/>
<circle cx="161" cy="57" r="2" fill="#121212"/>
<circle cx="170" cy="57" r="2" fill="#121212"/>
<circle cx="179" cy="57" r="2" fill="#121212"/>
<circle cx="188" cy="57" r="2" fill="#121212"/>
<circle cx="197" cy="57" r="2" fill="#121212"/>
<circle cx="206" cy="57" r="2" fill="#121212"/>
<circle cx="215" cy="57" r="2" fill="#121212"/>
<circle cx="224" cy="57" r="2" fill="#121212"/>
<circle cx="35" cy="66" r="2" fill="#121212"/>
<circle cx="44" cy="66" r="2" fill="#121212"/>
<circle cx="53" cy="66" r="2" fill="#121212"/>
<circle cx="62" cy="66" r="2" fill="#121212"/>
<circle cx="71" cy="66" r="2" fill="#121212"/>
<circle cx="80" cy="66" r="2" fill="#121212"/>
<circle cx="89" cy="66" r="2" fill="#121212"/>
<circle cx="98" cy="66" r="2" fill="#121212"/>
<circle cx="107" cy="66" r="2" fill="#121212"/>
<circle cx="116" cy="66" r="2" fill="#121212"/>
<circle cx="125" cy="66" r="2" fill="#121212"/>
<circle cx="134" cy="66" r="2" fill="#121212"/>
<circle cx="143" cy="66" r="2" fill="#121212"/>
<circle cx="152" cy="66" r="2" fill="#121212"/>
<circle cx="161" cy="66" r="2" fill="#121212"/>
<circle cx="170" cy="66" r="2" fill="#121212"/>
<circle cx="179" cy="66" r="2" fill="#121212"/>
<circle cx="188" cy="66" r="2" fill="#121212"/>
<circle cx="197" cy="66" r="2" fill="#121212"/>
<circle cx="206" cy="66" r="2" fill="#121212"/>
<circle cx="215" cy="66" r="2" fill="#121212"/>
<circle cx="224" cy="66" r="2" fill="#121212"/>
<circle cx="35" cy="75" r="2" fill="#121212"/>
<circle cx="44" cy="75" r="2" fill="#121212"/>
<circle cx="53" cy="75" r="2" fill="#121212"/>
<circle cx="62" cy="75" r="2" fill="#121212"/>
<circle cx="71" cy="75" r="2" fill="#121212"/>
<circle cx="80" cy="75" r="2" fill="#121212"/>
<circle cx="89" cy="75" r="2" fill="#121212"/>
<circle cx="98" cy="75" r="2" fill="#121212"/>
<circle cx="107" cy="75" r="2" fill="#121212"/>
<circle cx="116" cy="75" r="2" fill="#121212"/>
<circle cx="125" cy="75" r="2" fill="#121212"/>
<circle cx="134" cy="75" r="2" fill="#121212"/>
<circle cx="143" cy="75" r="2" fill="#121212"/>
<circle cx="152" cy="75" r="2" fill="#121212"/>
<circle cx="161" cy="75" r="2" fill="#121212"/>
<circle cx="170" cy="75" r="2" fill="#121212"/>
<circle cx="179" cy="75" r="2" fill="#121212"/>
<circle cx="188" cy="75" r="2" fill="#121212"/>
<circle cx="197" cy="75" r="2" fill="#121212"/>
<circle cx="206" cy="75" r="2" fill="#121212"/>
<circle cx="215" cy="75" r="2" fill="#121212"/>
<circle cx="224" cy="75" r="2" fill="#121212"/>
<circle cx="35" cy="84" r="2" fill="#121212"/>
<circle cx="44" cy="84" r="2" fill="#121212"/>
<circle cx="53" cy="84" r="2" fill="#121212"/>
<circle cx="62" cy="84" r="2" fill="#121212"/>
<circle cx="71" cy="84" r="2" fill="#121212"/>
<circle cx="80" cy="84" r="2" fill="#121212"/>
<circle cx="89" cy="84" r="2" fill="#121212"/>
<circle cx="98" cy="84" r="2" fill="#121212"/>
<circle cx="107" cy="84" r="2" fill="#121212"/>
<circle cx="116" cy="84" r="2" fill="#121212"/>
<circle cx="125" cy="84" r="2" fill="#121212"/>
<circle cx="134" cy="84" r="2" fill="#121212"/>
<circle cx="143" cy="84" r="2" fill="#121212"/>
<circle cx="152" cy="84" r="2" fill="#121212"/>
<circle cx="161" cy="84" r="2" fill="#121212"/>
<circle cx="170" cy="84" r="2" fill="#121212"/>
<circle cx="179" cy="84" r="2" fill="#121212"/>
<circle cx="188" cy="84" r="2" fill="#121212"/>
<circle cx="197" cy="84" r="2" fill="#121212"/>
<circle cx="206" cy="84" r="2" fill="#121212"/>
<circle cx="215" cy="84" r="2" fill="#121212"/>
<circle cx="224" cy="84" r="2" fill="#121212"/>
<circle cx="35" cy="93" r="2" fill="#121212"/>
<circle cx="44" cy="93" r="2" fill="#121212"/>
<circle cx="53" cy="93" r="2" fill="#121212"/>
<circle cx="62" cy="93" r="2" fill="#121212"/>
<circle cx="71" cy="93" r="2" fill="#121212"/>
<circle cx="80" cy="93" r="2" fill="#121212"/>
<circle cx="89" cy="93" r="2" fill="#121212"/>
<circle cx="98" cy="93" r="2" fill="#121212"/>
<circle cx="107" cy="93" r="2" fill="#121212"/>
<circle cx="116" cy="93" r="2" fill="#121212"/>
<circle cx="125" cy="93" r="2" fill="#121212"/>
<circle cx="134" cy="93" r="2" fill="#121212"/>
<circle cx="143" cy="93" r="2" fill="#121212"/>
<circle cx="152" cy="93" r="2" fill="#121212"/>
<circle cx="161" cy="93" r="2" fill="#121212"/>
<circle cx="170" cy="93" r="2" fill="#121212"/>
<circle cx="179" cy="93" r="2" fill="#121212"/>
<circle cx="188" cy="93" r="2" fill="#121212"/>
<circle cx="197" cy="93" r="2" fill="#121212"/>
<circle cx="206" cy="93" r="2" fill="#121212"/>
<circle cx="215" cy="93" r="2" fill="#121212"/>
<circle cx="224" cy="93" r="2" fill="#121212"/>
<circle cx="35" cy="102" r="2" fill="#121212"/>
<circle cx="44" cy="102" r="2" fill="#121212"/>
<circle cx="53" cy="102" r="2" fill="#121212"/>
<circle cx="62" cy="102" r="2" fill="#121212"/>
<circle cx="71" cy="102" r="2" fill="#121212"/>
<circle cx="80" cy="102" r="2" fill="#121212"/>
<circle cx="89" cy="102" r="2" fill="#121212"/>
<circle cx="98" cy="102" r="2" fill="#121212"/>
<circle cx="107" cy="102" r="2" fill="#121212"/>
<circle cx="116" cy="102" r="2" fill="#121212"/>
<circle cx="125" cy="102" r="2" fill="#121212"/>
<circle cx="134" cy="102" r="2" fill="#121212"/>
<circle cx="143" cy="102" r="2" fill="#121212"/>
<circle cx="152" cy="102" r="2" fill="#121212"/>
<circle cx="161" cy="102" r="2" fill="#121212"/>
<circle cx="170" cy="102" r="2" fill="#121212"/>
<circle cx="179" cy="102" r="2" fill="#121212"/>
<circle cx="188" cy="102" r="2" fill="#121212"/>
<circle cx="197" cy="102" r="2" fill="#121212"/>
<circle cx="206" cy="102" r="2" fill="#121212"/>
<circle cx="215" cy="102" r="2" fill="#121212"/>
<circle cx="224" cy="102" r="2" fill="#121212"/>
<circle cx="35" cy="111" r="2" fill="#121212"/>
<circle cx="44" cy="111" r="2" fill="#121212"/>
<circle cx="53" cy="111" r="2" fill="#121212"/>
<circle cx="62" cy="111" r="2" fill="#121212"/>
<circle cx="71" cy="111" r="2" fill="#121212"/>
<circle cx="80" cy="111" r="2" fill="#121212"/>
<circle cx="89" cy="111" r="2" fill="#121212"/>
<circle cx="98" cy="111" r="2" fill="#121212"/>
<circle cx="107" cy="111" r="2" fill="#121212"/>
<circle cx="116" cy="111" r="2" fill="#121212"/>
<circle cx="125" cy="111" r="2" fill="#121212"/>
<circle cx="134" cy="111" r="2" fill="#121212"/>
<circle cx="143" cy="111" r="2" fill="#121212"/>
<circle cx="152" cy="111" r="2" fill="#121212"/>
<circle cx="161" cy="111" r="2" fill="#121212"/>
<circle cx="170" cy="111" r="2" fill="#121212"/>
<circle cx="179" cy="111" r="2" fill="#121212"/>
<circle cx="188" cy="111" r="2" fill="#121212"/>
<circle cx="197" cy="111" r="2" fill="#121212"/>
<circle cx="206" cy="111" r="2" fill="#121212"/>
<circle cx="215" cy="111" r="2" fill="#121212"/>
<circle cx="224" cy="111" r="2" fill="#121212"/>
<circle cx="35" cy="120" r="2" fill="#121212"/>
<circle cx="44" cy="120" r="2" fill="#121212"/>
<circle cx="53" cy="120" r="2" fill="#121212"/>
<circle cx="62" cy="120" r="2" fill="#121212"/>
<circle cx="71" cy="120" r="2" fill="#121212"/>
<circle cx="80" cy="120" r="2" fill="#121212"/>
<circle cx="89" cy="120" r="2" fill="#121212"/>
<circle cx="98" cy="120" r="2" fill="#121212"/>
<circle cx="107" cy="120" r="2" fill="#121212"/>
<circle cx="116" cy="120" r="2" fill="#121212"/>
<circle cx="125" cy="120" r="2" fill="#121212"/>
<circle cx="134" cy="120" r="2" fill="#121212"/>
<circle cx="143" cy="120" r="2" fill="#121212"/>
<circle cx="152" cy="120" r="2" fill="#121212"/>
<circle cx="161" cy="120" r="2" fill="#121212"/>
<circle cx="170" cy="120" r="2" fill="#121212"/>
<circle cx="179" cy="120" r="2" fill="#121212"/>
<circle cx="188" cy="120" r="2" fill="#121212"/>
<circle cx="197" cy="120" r="2" fill="#121212"/>
<circle cx="206" cy="120" r="2" fill="#121212"/>
<circle cx="215" cy="120" r="2" fill="#121212"/>
<circle cx="224" cy="120" r="2" fill="#121212"/>
<circle cx="35" cy="129" r="2" fill="#121212"/>
<circle cx="44" cy="129" r="2" fill="#121212"/>
<circle cx="53" cy="129" r="2" fill="#121212"/>
<circle cx="62" cy="129" r="2" fill="#121212"/>
<circle cx="71" cy="129" r="2" fill="#121212"/>
<circle cx="80" cy="129" r="2" fill="#121212"/>
<circle cx="89" cy="129" r="2" fill="#121212"/>
<circle cx="98" cy="129" r="2" fill="#121212"/>
<circle cx="107" cy="129" r="2" fill="#121212"/>
<circle cx="116" cy="129" r="2" fill="#121212"/>
<circle cx="125" cy="129" r="2" fill="#121212"/>
<circle cx="134" cy="129" r="2" fill="#121212"/>
<circle cx="143" cy="129" r="2" fill="#121212"/>
<circle cx="152" cy="129" r="2" fill="#121212"/>
<circle cx="161" cy="129" r="2" fill="#121212"/>
<circle cx="170" cy="129" r="2" fill="#121212"/>
<circle cx="179" cy="129" r="2" fill="#121212"/>
<circle cx="188" cy="129" r="2" fill="#121212"/>
<circle cx="197" cy="129" r="2" fill="#121212"/>
<circle cx="206" cy="129" r="2" fill="#121212"/>
<circle cx="215" cy="129" r="2" fill="#121212"/>
<circle cx="224" cy="129" r="2" fill="#121212"/>
<circle cx="35" cy="138" r="2" fill="#121212"/>
<circle cx="44" cy="138" r="2" fill="#121212"/>
<circle cx="53" cy="138" r="2" fill="#121212"/>
<circle cx="62" cy="138" r="2" fill="#121212"/>
<circle cx="71" cy="138" r="2" fill="#121212"/>
<circle cx="80" cy="138" r="2" fill="#121212"/>
<circle cx="89" cy="138" r="2" fill="#121212"/>
<circle cx="98" cy="138" r="2" fill="#121212"/>
<circle cx="107" cy="138" r="2" fill="#121212"/>
<circle cx="116" cy="138" r="2" fill="#121212"/>
<circle cx="125" cy="138" r="2" fill="#121212"/>
<circle cx="134" cy="138" r="2" fill="#121212"/>
<circle cx="143" cy="138" r="2" fill="#121212"/>
<circle cx="152" cy="138" r="2" fill="#121212"/>
<circle cx="161" cy="138" r="2" fill="#121212"/>
<circle cx="170" cy="138" r="2" fill="#121212"/>
<circle cx="179" cy="138" r="2" fill="#121212"/>
<circle cx="188" cy="138" r="2" fill="#121212"/>
<circle cx="197" cy="138" r="2" fill="#121212"/>
<circle cx="206" cy="138" r="2" fill="#121212"/>
<circle cx="215" cy="138" r="2" fill="#121212"/>
<circle cx="224" cy="138" r="2" fill="#121212"/>
<circle cx="35" cy="147" r="2" fill="#121212"/>
<circle cx="44" cy="147" r="2" fill="#121212"/>
<circle cx="53" cy="147" r="2" fill="#121212"/>
<circle cx="62" cy="147" r="2" fill="#121212"/>
<circle cx="71" cy="147" r="2" fill="#121212"/>
<circle cx="80" cy="147" r="2" fill="#121212"/>
<circle cx="89" cy="147" r="2" fill="#121212"/>
<circle cx="98" cy="147" r="2" fill="#121212"/>
<circle cx="107" cy="147" r="2" fill="#121212"/>
<circle cx="116" cy="147" r="2" fill="#121212"/>
<circle cx="125" cy="147" r="2" fill="#121212"/>
<circle cx="134" cy="147" r="2" fill="#121212"/>
<circle cx="143" cy="147" r="2" fill="#121212"/>
<circle cx="152" cy="147" r="2" fill="#121212"/>
<circle cx="161" cy="147" r="2" fill="#121212"/>
<circle cx="170" cy="147" r="2" fill="#121212"/>
<circle cx="179" cy="147" r="2" fill="#121212"/>
<circle cx="188" cy="147" r="2" fill="#121212"/>
<circle cx="197" cy="147" r="2" fill="#121212"/>
<circle cx="206" cy="147" r="2" fill="#121212"/>
<circle cx="215" cy="147" r="2" fill="#121212"/>
<circle cx="224" cy="147" r="2" fill="#121212"/>
<circle cx="35" cy="156" r="2" fill="#121212"/>
<circle cx="44" cy="156" r="2" fill="#121212"/>
<circle cx="53" cy="156" r="2" fill="#121212"/>
<circle cx="62" cy="156" r="2" fill="#121212"/>
<circle cx="71" cy="156" r="2" fill="#121212"/>
<circle cx="80" cy="156" r="2" fill="#121212"/>
<circle cx="89" cy="156" r="2" fill="#121212"/>
<circle cx="98" cy="156" r="2" fill="#121212"/>
<circle cx="107" cy="156" r="2" fill="#121212"/>
<circle cx="116" cy="156" r="2" fill="#121212"/>
<circle cx="125" cy="156" r="2" fill="#121212"/>
<circle cx="134" cy="156" r="2" fill="#121212"/>
<circle cx="143" cy="156" r="2" fill="#121212"/>
<circle cx="152" cy="156" r="2" fill="#121212"/>
<circle cx="161" cy="156" r="2" fill="#121212"/>
<circle cx="170" cy="156" r="2" fill="#121212"/>
<circle cx="179" cy="156" r="2" fill="#121212"/>
<circle cx="188" cy="156" r="2" fill="#121212"/>
<circle cx="197" cy="156" r="2" fill="#121212"/>
<circle cx="206" cy="156" r="2" fill="#121212"/>
<circle cx="215" cy="156" r="2" fill="#121212"/>
<circle cx="224" cy="156" r="2" fill="#121212"/>
<circle cx="35" cy="165" r="2" fill="#121212"/>
<circle cx="44" cy="165" r="2" fill="#121212"/>
<circle cx="53" cy="165" r="2" fill="#121212"/>
<circle cx="62" cy="165" r="2" fill="#121212"/>
<circle cx="71" cy="165" r="2" fill="#121212"/>
<circle cx="80" cy="165" r="2" fill="#121212"/>
<circle cx="89" cy="165" r="2" fill="#121212"/>
<circle cx="98" cy="165" r="2" fill="#121212"/>
<circle cx="107" cy="165" r="2" fill="#121212"/>
<circle cx="116" cy="165" r="2" fill="#121212"/>
<circle cx="125" cy="165" r="2" fill="#121212"/>
<circle cx="134" cy="165" r="2" fill="#121212"/>
<circle cx="143" cy="165" r="2" fill="#121212"/>
<circle cx="152" cy="165" r="2" fill="#121212"/>
<circle cx="161" cy="165" r="2" fill="#121212"/>
<circle cx="170" cy="165" r="2" fill="#121212"/>
<circle cx="179" cy="165" r="2" fill="#121212"/>
<circle cx="188" cy="165" r="2" fill="#121212"/>
<circle cx="197" cy="165" r="2" fill="#121212"/>
<circle cx="206" cy="165" r="2" fill="#121212"/>
<circle cx="215" cy="165" r="2" fill="#121212"/>
<circle cx="224" cy="165" r="2" fill="#121212"/>
<circle cx="35" cy="174" r="2" fill="#121212"/>
<circle cx="44" cy="174" r="2" fill="#121212"/>
<circle cx="53" cy="174" r="2" fill="#121212"/>
<circle cx="62" cy="174" r="2" fill="#121212"/>
<circle cx="71" cy="174" r="2" fill="#121212"/>
<circle cx="80" cy="174" r="2" fill="#121212"/>
<circle cx="89" cy="174" r="2" fill="#121212"/>
<circle cx="98" cy="174" r="2" fill="#121212"/>
<circle cx="107" cy="174" r="2" fill="#121212"/>
<circle cx="116" cy="174" r="2" fill="#121212"/>
<circle cx="125" cy="174" r="2" fill="#121212"/>
<circle cx="134" cy="174" r="2" fill="#121212"/>
<circle cx="143" cy="174" r="2" fill="#121212"/>
<circle cx="152" cy="174" r="2" fill="#121212"/>
<circle cx="161" cy="174" r="2" fill="#121212"/>
<circle cx="170" cy="174" r="2" fill="#121212"/>
<circle cx="179" cy="174" r="2" fill="#121212"/>
<circle cx="188" cy="174" r="2" fill="#121212"/>
<circle cx="197" cy="174" r="2" fill="#121212"/>
<circle cx="206" cy="174" r="2" fill="#121212"/>
<circle cx="215" cy="174" r="2" fill="#121212"/>
<circle cx="224" cy="174" r="2" fill="#121212"/>
<circle cx="35" cy="183" r="2" fill="#121212"/>
<circle cx="44" cy="183" r="2" fill="#121212"/>
<circle cx="53" cy="183" r="2" fill="#121212"/>
<circle cx="62" cy="183" r="2" fill="#121212"/>
<circle cx="71" cy="183" r="2" fill="#121212"/>
<circle cx="80" cy="183" r="2" fill="#121212"/>
<circle cx="89" cy="183" r="2" fill="#121212"/>
<circle cx="98" cy="183" r="2" fill="#121212"/>
<circle cx="107" cy="183" r="2" fill="#121212"/>
<circle cx="116" cy="183" r="2" fill="#121212"/>
<circle cx="125" cy="183" r="2" fill="#121212"/>
<circle cx="134" cy="183" r="2" fill="#121212"/>
<circle cx="143" cy="183" r="2" fill="#121212"/>
<circle cx="152" cy="183" r="2" fill="#121212"/>
<circle cx="161" cy="183" r="2" fill="#121212"/>
<circle cx="170" cy="183" r="2" fill="#121212"/>
<circle cx="179" cy="183" r="2" fill="#121212"/>
<circle cx="188" cy="183" r="2" fill="#121212"/>
<circle cx="197" cy="183" r="2" fill="#121212"/>
<circle cx="206" cy="183" r="2" fill="#121212"/>
<circle cx="215" cy="183" r="2" fill="#121212"/>
<circle cx="224" cy="183" r="2" fill="#121212"/>
</g>
<rect x="1.5" y="65.5" width="200" height="151" rx="1.5" fill="black" stroke="white" stroke-width="3"/>
<rect x="10" y="97" width="60" height="7" rx="1" fill="white"/>
<rect x="10" y="121" width="37" height="7" rx="1" fill="white"/>
<rect x="10" y="109" width="109" height="7" rx="1" fill="white"/>
<circle cx="9.70974" cy="74.2903" r="2.70974" fill="white"/>
<circle cx="18.5164" cy="74.2903" r="2.70974" fill="white"/>
<circle cx="27.323" cy="74.2903" r="2.70974" fill="white"/>
<rect x="33" y="71" width="161" height="6" rx="0.690632" fill="white"/>
<line x1="2.5" y1="82.5" x2="199.5" y2="82.5" stroke="white" stroke-width="3" stroke-linecap="round"/>
</svg>
